HIERARCHY
ROOT Hips
{
 OFFSET 0.000000 0.000000 0.000000
 CHANNELS 6 Xposition Yposition Zposition Yrotation Xrotation Zrotation
 JOINT Chest
 {
  OFFSET 0.000000 10.385163 0.011643
  CHANNELS 3 Yrotation Xrotation Zrotation
  JOINT Chest2
  {
   OFFSET 0.000000 11.579334 -0.021150
   CHANNELS 3 Yrotation Xrotation Zrotation
   JOINT Chest3
   {
    OFFSET 0.000000 10.463212 0.000000
    CHANNELS 3 Yrotation Xrotation Zrotation
    JOINT Chest4
    {
     OFFSET 0.000000 10.463212 0.000000
     CHANNELS 3 Yrotation Xrotation Zrotation
     JOINT Neck
     {
      OFFSET 0.000000 14.544862 0.000000
      CHANNELS 3 Yrotation Xrotation Zrotation
      JOINT Head
      {
       OFFSET 0.000000 9.730630 -0.050295
       CHANNELS 3 Yrotation Xrotation Zrotation
       End Site
       {
        OFFSET 0.000000 18.757589 -0.026270
       }
      }
     }
     JOINT RightCollar
     {
      OFFSET -2.985174 8.102313 0.000000
      CHANNELS 3 Yrotation Xrotation Zrotation
      JOINT RightShoulder
      {
       OFFSET -13.558590 0.000000 0.000000
       CHANNELS 3 Yrotation Xrotation Zrotation
       JOINT RightElbow
       {
        OFFSET -28.208579 0.000000 0.000000
        CHANNELS 3 Yrotation Xrotation Zrotation
        JOINT RightWrist
        {
         OFFSET -23.322907 0.000000 0.010349
         CHANNELS 3 Yrotation Xrotation Zrotation
         End Site
         {
          OFFSET -17.603338 0.000000 0.000000
         }
        }
       }
      }
     }
     JOINT LeftCollar
     {
      OFFSET 2.985174 8.102313 0.000000
      CHANNELS 3 Yrotation Xrotation Zrotation
      JOINT LeftShoulder
      {
       OFFSET 13.558590 0.000000 0.000000
       CHANNELS 3 Yrotation Xrotation Zrotation
       JOINT LeftElbow
       {
        OFFSET 28.208579 0.000000 0.000000
        CHANNELS 3 Yrotation Xrotation Zrotation
        JOINT LeftWrist
        {
         OFFSET 23.322907 0.000000 0.010349
         CHANNELS 3 Yrotation Xrotation Zrotation
         End Site
         {
          OFFSET 17.603338 0.000000 0.000000
         }
        }
       }
      }
     }
    }
   }
  }
 }
 JOINT RightHip
 {
  OFFSET -8.341224 -0.057053 -0.005822
  CHANNELS 3 Yrotation Xrotation Zrotation
  JOINT RightKnee
  {
   OFFSET 0.000000 -44.280013 0.005508
   CHANNELS 3 Yrotation Xrotation Zrotation
   JOINT RightAnkle
   {
    OFFSET 0.000000 -43.261728 0.009315
    CHANNELS 3 Yrotation Xrotation Zrotation
    JOINT RightToe
    {
     OFFSET 0.000000 -8.082955 18.257715
     CHANNELS 3 Yrotation Xrotation Zrotation
     End Site
     {
      OFFSET 0.000000 -1.634678 7.189621
     }
    }
   }
  }
 }
 JOINT LeftHip
 {
  OFFSET 8.341224 -0.057053 -0.005822
  CHANNELS 3 Yrotation Xrotation Zrotation
  JOINT LeftKnee
  {
   OFFSET 0.000000 -44.280013 0.005508
   CHANNELS 3 Yrotation Xrotation Zrotation
   JOINT LeftAnkle
   {
    OFFSET 0.000000 -43.261728 0.009315
    CHANNELS 3 Yrotation Xrotation Zrotation
    JOINT LeftToe
    {
     OFFSET 0.000000 -8.082955 18.257715
     CHANNELS 3 Yrotation Xrotation Zrotation
     End Site
     {
      OFFSET 0.000000 -1.634678 7.189621
     }
    }
   }
  }
 }
}
MOTION
Frames: 14
Frame Time: 0.016667
0.000000 95.489079 0.000000 0.000000 -5.826342 0.000000 0.000000 11.116423 0.000000 0.000000 -5.290081 0.000000 0.000000 0.000000 0.000000 0.000000 0.000000 0.000000 0.000000 12.665069 0.000000 0.000000 0.575450 0.000000 0.000000 0.000000 0.000000 0.000000 0.000000 0.000000 2.337306 0.000000 0.000000 -2.337306 0.000000 0.000000 0.000000 0.000000 0.000000 0.000000 0.000000 0.000000 -2.337306 0.000000 0.000000 2.337306 0.000000 0.000000 0.000000 8.578828 0.000000 0.000000 1.905768 0.000000 0.000000 -4.658254 0.000000 0.000000 0.000000 0.000000 0.000000 8.578828 0.000000 0.000000 1.905768 0.000000 0.000000 -4.658254 0.000000 0.000000 0.000000 0.000000
-92.724039 97.463113 -196.004984 12.916270 -20.474244 -0.182285 -0.777915 10.639443 2.459333 -0.400813 4.724496 1.106080 -0.400813 4.724496 1.106078 -0.309008 3.542663 0.832191 -1.837289 14.035372 -1.611616 -2.827622 -10.129142 -2.313115 1.275666 -2.454314 4.567340 -1.041550 -11.560743 77.543860 -3.792232 23.307126 -5.179461 1.121903 -0.172882 1.736716 -0.268938 -3.850878 -14.363866 3.006150 -8.559495 -78.165750 1.211233 21.415703 2.728895 3.442523 -0.680252 -1.383455 -3.596729 24.309170 -0.124811 -2.003584 -0.526005 0.065733 -8.667499 -4.419163 1.764608 -0.000000 0.000000 -0.000000 3.001335 24.955683 2.966787 0.293819 -1.867489 0.368039 4.679079 -3.078869 -3.632699 -0.000000 0.000000 0.000000
-92.713683 97.452356 -196.014511 12.930645 -20.272542 -0.186701 -0.776868 10.529433 2.436727 -0.399277 4.675646 1.095968 -0.399277 4.675646 1.095966 -0.307693 3.506035 0.824578 -1.830459 14.041956 -1.608253 -2.816092 -10.116872 -2.309529 1.276421 -2.433124 4.586257 -1.056727 -11.573801 77.584339 -3.824197 23.304522 -5.202864 1.111016 -0.166202 1.718190 -0.262015 -3.828837 -14.308037 3.000189 -8.539663 -78.194514 1.217251 21.400815 2.717152 3.426619 -0.670135 -1.402643 -3.468362 24.105702 -0.112643 -2.255616 -0.510684 0.182023 -8.546980 -4.434755 1.720665 0.000000 0.000000 0.000000 2.930047 24.735269 2.912417 0.349445 -1.821680 0.391218 4.673047 -3.111853 -3.650766 0.000000 0.000000 -0.000000
-92.702059 97.443883 -196.020640 12.943654 -20.089650 -0.191104 -0.775272 10.430051 2.415858 -0.397601 4.631519 1.086620 -0.397601 4.631519 1.086620 -0.306290 3.472948 0.817540 -1.824275 14.045279 -1.605128 -2.805677 -10.110663 -2.306108 1.278558 -2.415421 4.604494 -1.069390 -11.587168 77.623829 -3.857551 23.297469 -5.228667 1.101054 -0.160149 1.699295 -0.255526 -3.810309 -14.256346 2.989635 -8.522635 -78.223550 1.217627 21.379206 2.703760 3.419236 -0.656908 -1.436857 -3.359806 23.921281 -0.106961 -2.477524 -0.495679 0.284805 -8.437492 -4.448542 1.684796 0.000000 0.000000 0.000000 2.875893 24.534076 2.866526 0.391598 -1.776864 0.414080 4.666489 -3.144938 -3.665181 0.000000 -0.000000 0.000000
-92.688362 97.438977 -196.022055 12.955211 -19.932932 -0.195119 -0.772982 10.345241 2.397370 -0.395752 4.593869 1.078318 -0.395752 4.593869 1.078318 -0.304777 3.444718 0.811286 -1.819259 14.044479 -1.602607 -2.797214 -10.112116 -2.303328 1.283099 -2.402815 4.621637 -1.079120 -11.600522 77.662712 -3.895229 23.280778 -5.260559 1.093024 -0.155254 1.678313 -0.249165 -3.797602 -14.210863 2.972474 -8.508397 -78.253108 1.210556 21.344469 2.688540 3.428864 -0.636163 -1.501828 -3.284942 23.762552 -0.112918 -2.653017 -0.480704 0.367785 -8.342404 -4.459972 1.661237 0.000000 -0.000000 0.000000 2.851843 24.357909 2.833539 0.409687 -1.731290 0.437606 4.657808 -3.179566 -3.673538 0.000000 -0.000000 0.000000
-92.673396 97.436355 -196.020071 12.965418 -19.795024 -0.199151 -0.770124 10.271057 2.380633 -0.393747 4.560941 1.070785 -0.393747 4.560941 1.070785 -0.303162 3.420031 0.805608 -1.814899 14.040420 -1.600330 -2.789882 -10.119624 -2.300720 1.289008 -2.393702 4.638102 -1.086330 -11.614201 77.700605 -3.934282 23.259627 -5.294835 1.085920 -0.150989 1.656964 -0.243244 -3.788402 -14.169524 2.950724 -8.496969 -78.282948 1.197839 21.303014 2.671692 3.447033 -0.612346 -1.581812 -3.229569 23.622925 -0.124633 -2.798400 -0.466330 0.437278 -8.258357 -4.469676 1.645773 0.000000 0.000000 0.000000 2.844678 24.201022 2.808520 0.414304 -1.686691 0.460796 4.648599 -3.214295 -3.678241 0.000000 -0.000000 0.000000
-92.658300 97.434444 -196.015236 12.973227 -19.672650 -0.204418 -0.766502 10.206283 2.365521 -0.391492 4.532197 1.063962 -0.391492 4.532197 1.063962 -0.301372 3.398480 0.800464 -1.810300 14.032434 -1.597453 -2.782325 -10.134419 -2.297041 1.294564 -2.386750 4.654450 -1.089709 -11.629515 77.735365 -3.967299 23.245122 -5.322809 1.077637 -0.146398 1.640043 -0.239119 -3.779259 -14.130279 2.925833 -8.491207 -78.312597 1.179245 21.267351 2.652130 3.456796 -0.595645 -1.644633 -3.170847 23.501651 -0.130872 -2.932481 -0.454766 0.498773 -8.186310 -4.477761 1.633847 0.000000 -0.000000 0.000000 2.831937 24.065367 2.785366 0.423720 -1.649256 0.480322 4.643116 -3.244903 -3.682858 0.000000 -0.000000 0.000000
-92.643566 97.432936 -196.006845 12.978993 -19.567794 -0.211878 -0.761803 10.152052 2.352251 -0.388857 4.508140 1.057941 -0.388857 4.508140 1.057941 -0.299311 3.380446 0.795920 -1.804743 14.019590 -1.593518 -2.773365 -10.158223 -2.291702 1.299313 -2.381104 4.671245 -1.088078 -11.647674 77.765193 -3.993360 23.243700 -5.342011 1.066377 -0.140329 1.630918 -0.237809 -3.768403 -14.092725 2.896418 -8.493782 -78.343001 1.155277 21.241771 2.630461 3.451017 -0.590722 -1.677194 -3.097878 23.403127 -0.125704 -3.063005 -0.449019 0.553297 -8.128969 -4.482395 1.624788 0.000000 -0.000000 0.000000 2.802579 23.956171 2.762184 0.445876 -1.623057 0.494185 4.643888 -3.268276 -3.689437 0.000000 -0.000000 0.000000
-92.628703 97.432139 -195.995602 12.982363 -19.478472 -0.220593 -0.756333 10.107229 2.340616 -0.385963 4.488266 1.052634 -0.385963 4.488266 1.052634 -0.297070 3.365549 0.791911 -1.798956 14.002818 -1.588987 -2.764198 -10.189315 -2.285297 1.303707 -2.377615 4.687919 -1.082610 -11.667473 77.791885 -4.013404 23.248932 -5.354917 1.053932 -0.133932 1.626230 -0.238281 -3.757593 -14.057271 2.863860 -8.502031 -78.373203 1.125437 21.221981 2.606081 3.436800 -0.592889 -1.692592 -3.021527 23.322924 -0.114991 -3.182242 -0.446197 0.599868 -8.083632 -4.485430 1.619277 0.000000 -0.000000 0.000000 2.767655 23.868196 2.740966 0.472812 -1.604019 0.504372 4.648383 -3.287527 -3.695936 0.000000 -0.000000 0.000000
-92.613375 97.431398 -195.984167 12.981231 -19.395460 -0.228948 -0.750826 10.067195 2.329859 -0.383098 4.470518 1.047719 -0.383098 4.470518 1.047719 -0.294856 3.352246 0.788198 -1.794219 13.984239 -1.584399 -2.757029 -10.223764 -2.278354 1.307381 -2.377501 4.703342 -1.075527 -11.686602 77.818704 -4.022821 23.252630 -5.360276 1.043575 -0.129701 1.620678 -0.238818 -3.748668 -14.023085 2.833744 -8.510804 -78.399879 1.088001 21.207612 2.576072 3.418535 -0.598302 -1.697957 -2.951678 23.247046 -0.105357 -3.285782 -0.439603 0.640935 -8.043139 -4.492478 1.614776 0.000000 0.000000 0.000000 2.737905 23.787689 2.721584 0.498945 -1.586124 0.513545 4.653257 -3.307774 -3.699787 0.000000 -0.000000 0.000000
-92.597323 97.430456 -195.973704 12.974305 -19.314913 -0.236209 -0.744988 10.030235 2.319842 -0.380118 4.454137 1.043128 -0.380119 4.454137 1.043128 -0.292562 3.339968 0.784727 -1.791218 13.963765 -1.580044 -2.753036 -10.261738 -2.271147 1.310059 -2.381810 4.716556 -1.067814 -11.703398 77.847002 -4.018085 23.250987 -5.356697 1.036775 -0.129178 1.612483 -0.238808 -3.743043 -13.990092 2.808389 -8.517743 -78.421863 1.039502 21.200122 2.537557 3.396243 -0.605938 -1.692746 -2.892064 23.168865 -0.099019 -3.369925 -0.424836 0.676576 -8.005979 -4.507602 1.609853 0.000000 -0.000000 -0.000000 2.716862 23.709261 2.703410 0.522836 -1.567300 0.522640 4.657395 -3.331461 -3.699100 0.000000 0.000000 0.000000
-92.580807 97.429570 -195.963050 12.962889 -19.240676 -0.243133 -0.739109 9.998062 2.310713 -0.377164 4.439882 1.038933 -0.377164 4.439882 1.038933 -0.290293 3.329284 0.781554 -1.789266 13.941489 -1.575627 -2.751043 -10.303060 -2.263393 1.312011 -2.389487 4.728517 -1.058485 -11.719519 77.875431 -4.002718 23.247806 -5.345580 1.032065 -0.130820 1.603420 -0.238866 -3.739295 -13.958370 2.785473 -8.525205 -78.440316 0.983400 21.198026 2.493406 3.369900 -0.616769 -1.677476 -2.838910 23.095022 -0.093645 -3.438364 -0.406359 0.706688 -7.973661 -4.526747 1.605940 -0.000000 -0.000000 0.000000 2.700967 23.638304 2.687017 0.545923 -1.549616 0.530721 4.661911 -3.356145 -3.695765 0.000000 0.000000 0.000000
-92.564277 97.428862 -195.951367 12.948774 -19.175067 -0.250342 -0.734806 9.971198 2.302147 -0.374946 4.427977 1.035027 -0.374946 4.427977 1.035027 -0.288583 3.320361 0.778605 -1.787574 13.919803 -1.570806 -2.749706 -10.343285 -2.254775 1.313701 -2.398590 4.740960 -1.046806 -11.737628 77.903205 -3.982677 23.246319 -5.329852 1.028313 -0.132491 1.593516 -0.239104 -3.735010 -13.927319 2.763619 -8.535106 -78.455407 0.928370 21.196544 2.449326 3.343845 -0.629980 -1.660874 -2.790845 23.031448 -0.089036 -3.497773 -0.390746 0.733445 -7.943566 -4.543340 1.604792 0.000000 0.000000 0.000000 2.690317 23.577238 2.674050 0.566940 -1.533261 0.537638 4.666808 -3.379619 -3.692886 0.000000 0.000000 -0.000000
-92.547951 97.428470 -195.938229 12.932652 -19.120433 -0.258222 -0.732987 9.950986 2.294074 -0.373871 4.419016 1.031398 -0.373871 4.419016 1.031398 -0.287736 3.313644 0.775873 -1.786041 13.899050 -1.565718 -2.748781 -10.381773 -2.245599 1.315424 -2.408544 4.754498 -1.030750 -11.760019 77.929727 -3.959115 23.248097 -5.309397 1.025553 -0.133559 1.582467 -0.239736 -3.728213 -13.896574 2.742280 -8.549510 -78.466081 0.873323 21.193635 2.402882 3.319875 -0.646568 -1.646989 -2.748214 22.981959 -0.085144 -3.549863 -0.380719 0.757158 -7.914910 -4.553966 1.607929 0.000000 0.000000 0.000000 2.687003 23.528319 2.666218 0.584381 -1.518194 0.543321 4.671417 -3.400722 -3.691870 0.000000 0.000000 0.000000
